<svg height="1374" width="720" xmlns="http://www.w3.org/2000/svg">
<rect height="1374" fill="#555" width="720"></rect>
<text fill="#7f7" font-family="Courier New" font-size="12" xml:space="preserve">
<tspan x="10" y="26">5 megabytes installed</tspan>
<tspan x="10" y="42"></tspan>
<tspan x="10" y="58">node_modules</tspan>
<tspan x="10" y="74">└─┬ http2-push-manifest@1.0.1 </tspan>
<tspan x="10" y="90">  ├─┬ dom5@1.3.6 </tspan>
<tspan x="10" y="106">  │ ├── @types/clone@0.1.30 </tspan>
<tspan x="10" y="122">  │ ├── @types/node@4.2.6 </tspan>
<tspan x="10" y="138">  │ ├─┬ @types/parse5@0.0.31 </tspan>
<tspan x="10" y="154">  │ │ └── @types/node@6.0.70 </tspan>
<tspan x="10" y="170">  │ ├── clone@1.0.2 </tspan>
<tspan x="10" y="186">  │ └── parse5@1.5.1 </tspan>
<tspan x="10" y="202">  ├─┬ hydrolysis@1.22.0 </tspan>
<tspan x="10" y="218">  │ ├─┬ doctrine@0.7.2 </tspan>
<tspan x="10" y="234">  │ │ ├── esutils@1.1.6 </tspan>
<tspan x="10" y="250">  │ │ └── isarray@0.0.1 </tspan>
<tspan x="10" y="266">  │ ├── es6-promise@2.3.0 </tspan>
<tspan x="10" y="282">  │ ├── espree@2.2.5 </tspan>
<tspan x="10" y="298">  │ ├── estraverse@3.1.0 </tspan>
<tspan x="10" y="314">  │ └── path-is-absolute@1.0.1 </tspan>
<tspan x="10" y="330">  ├─┬ nopt@3.0.6 </tspan>
<tspan x="10" y="346">  │ └── abbrev@1.1.0 </tspan>
<tspan x="10" y="362">  ├─┬ update-notifier@0.5.0 </tspan>
<tspan x="10" y="378">  │ ├─┬ chalk@1.1.3 </tspan>
<tspan x="10" y="394">  │ │ ├── ansi-styles@2.2.1 </tspan>
<tspan x="10" y="410">  │ │ ├── escape-string-regexp@1.0.5 </tspan>
<tspan x="10" y="426">  │ │ ├─┬ has-ansi@2.0.0 </tspan>
<tspan x="10" y="442">  │ │ │ └── ansi-regex@2.1.1 </tspan>
<tspan x="10" y="458">  │ │ ├── strip-ansi@3.0.1 </tspan>
<tspan x="10" y="474">  │ │ └── supports-color@2.0.0 </tspan>
<tspan x="10" y="490">  │ ├─┬ configstore@1.4.0 </tspan>
<tspan x="10" y="506">  │ │ ├── graceful-fs@4.1.11 </tspan>
<tspan x="10" y="522">  │ │ ├─┬ mkdirp@0.5.1 </tspan>
<tspan x="10" y="538">  │ │ │ └── minimist@0.0.8 </tspan>
<tspan x="10" y="554">  │ │ ├── object-assign@4.1.1 </tspan>
<tspan x="10" y="570">  │ │ ├── os-tmpdir@1.0.2 </tspan>
<tspan x="10" y="586">  │ │ ├─┬ osenv@0.1.4 </tspan>
<tspan x="10" y="602">  │ │ │ └── os-homedir@1.0.2 </tspan>
<tspan x="10" y="618">  │ │ ├── uuid@2.0.3 </tspan>
<tspan x="10" y="634">  │ │ ├─┬ write-file-atomic@1.3.2 </tspan>
<tspan x="10" y="650">  │ │ │ ├── imurmurhash@0.1.4 </tspan>
<tspan x="10" y="666">  │ │ │ └── slide@1.1.6 </tspan>
<tspan x="10" y="682">  │ │ └── xdg-basedir@2.0.0 </tspan>
<tspan x="10" y="698">  │ ├── is-npm@1.0.0 </tspan>
<tspan x="10" y="714">  │ ├─┬ latest-version@1.0.1 </tspan>
<tspan x="10" y="730">  │ │ └─┬ package-json@1.2.0 </tspan>
<tspan x="10" y="746">  │ │   ├─┬ got@3.3.1 </tspan>
<tspan x="10" y="762">  │ │   │ ├─┬ duplexify@3.5.0 </tspan>
<tspan x="10" y="778">  │ │   │ │ ├─┬ end-of-stream@1.0.0 </tspan>
<tspan x="10" y="794">  │ │   │ │ │ └─┬ once@1.3.3 </tspan>
<tspan x="10" y="810">  │ │   │ │ │   └── wrappy@1.0.2 </tspan>
<tspan x="10" y="826">  │ │   │ │ ├── inherits@2.0.3 </tspan>
<tspan x="10" y="842">  │ │   │ │ ├─┬ readable-stream@2.2.9 </tspan>
<tspan x="10" y="858">  │ │   │ │ │ ├── buffer-shims@1.0.0 </tspan>
<tspan x="10" y="874">  │ │   │ │ │ ├── core-util-is@1.0.2 </tspan>
<tspan x="10" y="890">  │ │   │ │ │ ├── isarray@1.0.0 </tspan>
<tspan x="10" y="906">  │ │   │ │ │ ├── process-nextick-args@1.0.7 </tspan>
<tspan x="10" y="922">  │ │   │ │ │ ├── string_decoder@1.0.0 </tspan>
<tspan x="10" y="938">  │ │   │ │ │ └── util-deprecate@1.0.2 </tspan>
<tspan x="10" y="954">  │ │   │ │ └── stream-shift@1.0.0 </tspan>
<tspan x="10" y="970">  │ │   │ ├── infinity-agent@2.0.3 </tspan>
<tspan x="10" y="986">  │ │   │ ├── is-redirect@1.0.0 </tspan>
<tspan x="10" y="1002">  │ │   │ ├── is-stream@1.1.0 </tspan>
<tspan x="10" y="1018">  │ │   │ ├── lowercase-keys@1.0.0 </tspan>
<tspan x="10" y="1034">  │ │   │ ├── nested-error-stacks@1.0.2 </tspan>
<tspan x="10" y="1050">  │ │   │ ├── object-assign@3.0.0 </tspan>
<tspan x="10" y="1066">  │ │   │ ├── prepend-http@1.0.4 </tspan>
<tspan x="10" y="1082">  │ │   │ ├─┬ read-all-stream@3.1.0 </tspan>
<tspan x="10" y="1098">  │ │   │ │ └─┬ pinkie-promise@2.0.1 </tspan>
<tspan x="10" y="1114">  │ │   │ │   └── pinkie@2.0.4 </tspan>
<tspan x="10" y="1130">  │ │   │ └── timed-out@2.0.0 </tspan>
<tspan x="10" y="1146">  │ │   └─┬ registry-url@3.1.0 </tspan>
<tspan x="10" y="1162">  │ │     └─┬ rc@1.2.1 </tspan>
<tspan x="10" y="1178">  │ │       ├── deep-extend@0.4.1 </tspan>
<tspan x="10" y="1194">  │ │       ├── ini@1.3.4 </tspan>
<tspan x="10" y="1210">  │ │       ├── minimist@1.2.0 </tspan>
<tspan x="10" y="1226">  │ │       └── strip-json-comments@2.0.1 </tspan>
<tspan x="10" y="1242">  │ ├─┬ repeating@1.1.3 </tspan>
<tspan x="10" y="1258">  │ │ └─┬ is-finite@1.0.2 </tspan>
<tspan x="10" y="1274">  │ │   └── number-is-nan@1.0.1 </tspan>
<tspan x="10" y="1290">  │ ├─┬ semver-diff@2.1.0 </tspan>
<tspan x="10" y="1306">  │ │ └── semver@5.3.0 </tspan>
<tspan x="10" y="1322">  │ └── string-length@1.0.1 </tspan>
<tspan x="10" y="1338">  └─┬ vulcanize@1.15.4 </tspan>
<tspan x="10" y="1354">    └── path-posix@1.0.0</tspan>
</text>
</svg>
